<?xml version="1.0" encoding="UTF-8"?>
<svg width="24px" height="20px" viewBox="0 0 24 20" version="1.1" xmlns="http://www.w3.org/2000/svg" xmlns:xlink="http://www.w3.org/1999/xlink">
    <!-- Generator: Sketch 46.2 (44496) - http://www.bohemiancoding.com/sketch -->
    <title>icon-twitter</title>
    <desc>Created with Sketch.</desc>
    <defs></defs>
    <g id="Web" stroke="none" stroke-width="1" fill="none" fill-rule="evenodd" opacity="0.600000024">
        <g id="Desktop-HD" transform="translate(-663.000000, -8075.000000)" fill="#FFFFFF">
            <g id="footer" transform="translate(0.000000, 7926.000000)">
                <g id="Button" transform="translate(629.000000, 129.000000)">
                    <path d="M58,22.3657988 C57.1182053,22.7686703 56.1674551,23.0393943 55.1707345,23.1622558 C56.1883507,22.5386621 56.96915,21.5479124 57.3376092,20.3692989 C56.386859,20.9486053 55.3323272,21.3693346 54.210233,21.5943427 C53.3110253,20.6121647 52.0322141,20 50.6161883,20 C47.89558,20 45.6903967,22.2615093 45.6903967,25.0501804 C45.6903967,25.4437658 45.734974,25.8316368 45.8199495,26.1995071 C41.7264997,25.9873567 38.0969324,23.9787135 35.6688626,20.9228901 C35.2460748,21.670774 35.0036858,22.5386621 35.0036858,23.4608379 C35.0036858,25.2144719 35.870157,26.7602414 37.1942421,27.6645594 C36.3876716,27.6395586 35.6270714,27.4116933 34.9618945,27.0338226 L34.9618945,27.0981106 C34.9618945,29.5453409 36.660011,31.5846995 38.9125577,32.0497161 C38.4988246,32.1625772 38.0634994,32.224008 37.6177264,32.224008 C37.2994167,32.224008 36.9908582,32.1947212 36.6899614,32.1361477 C37.3168297,34.142648 39.1361407,35.6005572 41.2897815,35.6405586 C39.6042023,36.9941784 37.481905,37.8027787 35.1750297,37.8027787 C34.7766201,37.8027787 34.3830862,37.7792064 34,37.7313475 C36.178019,39.1628272 38.7669849,40 41.548887,40 C50.60783,40 55.5607859,32.3068681 55.5607859,25.6330583 C55.5607859,25.4151934 55.5538207,25.1966142 55.546159,24.9816065 C56.505964,24.2708668 57.3403953,23.3815493 58,22.3657988 L58,22.3657988 Z" id="icon-twitter"></path>
                </g>
            </g>
        </g>
    </g>
</svg>